<?xml version="1.0" encoding="utf-8"?>
<!-- Generator: Adobe Illustrator 25.4.1, SVG Export Plug-In . SVG Version: 6.00 Build 0)  -->
<!DOCTYPE svg PUBLIC "-//W3C//DTD SVG 1.1//EN" "http://www.w3.org/Graphics/SVG/1.1/DTD/svg11.dtd" [
	<!ENTITY ns_extend "http://ns.adobe.com/Extensibility/1.0/">
	<!ENTITY ns_ai "http://ns.adobe.com/AdobeIllustrator/10.0/">
	<!ENTITY ns_graphs "http://ns.adobe.com/Graphs/1.0/">
	<!ENTITY ns_vars "http://ns.adobe.com/Variables/1.0/">
	<!ENTITY ns_imrep "http://ns.adobe.com/ImageReplacement/1.0/">
	<!ENTITY ns_sfw "http://ns.adobe.com/SaveForWeb/1.0/">
	<!ENTITY ns_custom "http://ns.adobe.com/GenericCustomNamespace/1.0/">
	<!ENTITY ns_adobe_xpath "http://ns.adobe.com/XPath/1.0/">
]>
<svg version="1.1" id="Capa_1" xmlns:x="&ns_extend;" xmlns:i="&ns_ai;" xmlns:graph="&ns_graphs;"
	 xmlns="http://www.w3.org/2000/svg" xmlns:xlink="http://www.w3.org/1999/xlink" x="0px" y="0px" viewBox="0 0 198.4 198.4"
	 style="enable-background:new 0 0 198.4 198.4;" xml:space="preserve">
<metadata>
	<sfw  xmlns="&ns_sfw;">
		<slices></slices>
		<sliceSourceBounds  bottomLeftOrigin="true" height="185.4" width="180.3" x="8.8" y="5.5"></sliceSourceBounds>
	</sfw>
</metadata>
<path d="M8.2,82.9c0-3.2,0.9-5.5,3.4-7.5c6.5-5.2,12.9-10.6,19.5-15.8c2-1.5,2.6-3.1,2.6-5.5c-0.1-10.5-0.1-20.8,0-31.3
	c0-9,5.3-14.2,14.2-14.2c11,0,21.8-0.1,32.8,0.1c2,0,3.9,1,4.6,3c0.5,1.4,0,3-1.1,3.9C82,17.5,78.4,17,75.8,17c-3,0-6,0-9,0
	c-5.9,0-11.8,0-17.6,0c-5.5,0-6.9,1.2-6.9,6.8c0,23.6,0,47.3,0,70.9c0,2.2,0.6,3.7,2.5,5.2c17.9,13.4,35.7,27.1,53.7,40.8
	c8.3-6.3,16.5-12.4,24.6-18.7c9.7-7.4,19.5-14.8,29.2-22.3c1.2-1,2.3-3.1,2.3-4.7c0.1-23.8,0.1-47.5,0.1-71.3c0-5.3-1.4-6.7-6.7-6.7
	c-5.8,0-11.6,0-17.4,0c-2.8,0-5.5,0-8.4,0c-2.2,0-4.6,0.2-6.8-0.1c-1.4-0.1-2.8-0.7-3.6-1.8c-1.2-1.8-0.6-4.6,1.2-5.7
	c1-0.6,2.3-0.7,3.4-0.7c11-0.1,21.9,0,32.9,0c8.4,0,13.5,5.2,13.5,13.7c0.1,10.8,0,21.6,0.1,32.4c0,1.5,1,3.4,2.1,4.4
	c6.7,5.7,13.5,11,20.1,16.8c1.6,1.4,2.8,4.1,2.8,6c0.1,32.6,0.1,65.3,0.1,97.8c0,8.7-5.3,14-14,14c-50.6,0-101.4,0-152,0
	c-8.7,0-14.3-5.4-14.3-14.3C8.3,166.5,8.4,96.4,8.2,82.9z M173.2,185.2c-17.1-17.1-34.2-34.2-51.5-51.5c-5.9,4.6-12.2,9.2-18.5,14
	c-4.2,3.2-5.3,3.2-9.5,0c-6.3-4.8-12.7-9.6-18.1-13.8c-17.4,17.4-34.5,34.4-51.5,51.2C73.6,185.2,123.5,185.2,173.2,185.2z
	 M17.3,177.3c16.5-16.5,33.1-33,49.9-49.8c-16.4-12.6-33-25.1-49.9-37.9 M130,127.5c16.8,16.8,33.3,33.4,49.5,49.8
	c0-28.7,0-57.9,0-87.4C162.8,102.6,146.2,115.1,130,127.5z M163.5,91.1c5-3.8,9.5-7.3,14.3-10.8c-4.8-3.9-9.4-7.6-14.3-11.7
	 M33.6,68.7c-5,4.1-9.5,7.8-14.3,11.6c4.8,3.6,9.4,7,14.3,10.7C33.6,83.4,33.6,76.5,33.6,68.7z"/>
<path d="M133.4,70.7c0,19.1-15.8,34.9-35,34.9c-19.1,0-34.9-16-34.7-35.1c0.1-18.8,16-34.6,34.9-34.7
	C117.5,35.7,133.4,51.6,133.4,70.7z M124.7,70.7c0-14.4-11.6-26.2-26-26.2c-14.4-0.1-26.5,11.9-26.5,26.2s11.7,26.1,26.1,26.1
	C113,96.9,124.7,85.3,124.7,70.7z"/>
<path d="M96.1,72c3.8-4.1,6.9-7.3,10-10.5c2.1-2.2,4.4-2.7,6.7-0.4c2,2.1,1.5,4.4-0.5,6.4c-4.1,4.1-8.3,8.3-12.3,12.3
	c-2.3,2.3-4.7,2.3-7,0c-2.2-2.2-4.4-4.4-6.7-6.7c-2-2-2.5-4.3-0.4-6.4c2.2-2.3,4.7-1.6,6.7,0.5C93.8,68.6,94.8,70.2,96.1,72z"/>
<circle cx="98.7" cy="12.7" r="4.3"/>
</svg>
