<?xml version="1.0" encoding="utf-8"?>
<!-- Generator: Adobe Illustrator 25.4.1, SVG Export Plug-In . SVG Version: 6.00 Build 0)  -->
<!DOCTYPE svg PUBLIC "-//W3C//DTD SVG 1.1//EN" "http://www.w3.org/Graphics/SVG/1.1/DTD/svg11.dtd" [
	<!ENTITY ns_extend "http://ns.adobe.com/Extensibility/1.0/">
	<!ENTITY ns_ai "http://ns.adobe.com/AdobeIllustrator/10.0/">
	<!ENTITY ns_graphs "http://ns.adobe.com/Graphs/1.0/">
	<!ENTITY ns_vars "http://ns.adobe.com/Variables/1.0/">
	<!ENTITY ns_imrep "http://ns.adobe.com/ImageReplacement/1.0/">
	<!ENTITY ns_sfw "http://ns.adobe.com/SaveForWeb/1.0/">
	<!ENTITY ns_custom "http://ns.adobe.com/GenericCustomNamespace/1.0/">
	<!ENTITY ns_adobe_xpath "http://ns.adobe.com/XPath/1.0/">
]>
<svg version="1.1" id="Capa_1" xmlns:x="&ns_extend;" xmlns:i="&ns_ai;" xmlns:graph="&ns_graphs;"
	 xmlns="http://www.w3.org/2000/svg" xmlns:xlink="http://www.w3.org/1999/xlink" x="0px" y="0px" viewBox="0 0 198.4 198.4"
	 style="enable-background:new 0 0 198.4 198.4;" xml:space="preserve">
<metadata>
	<sfw  xmlns="&ns_sfw;">
		<slices></slices>
		<sliceSourceBounds  bottomLeftOrigin="true" height="190" width="162.3" x="0" y="0"></sliceSourceBounds>
	</sfw>
</metadata>
<g id="Capa_1_00000177486537450369006430000007670321279405672092_">
	<path d="M174.6,9.9c-3.7-3.7-8.6-5.7-13.8-5.7H72.5C61.7,4.2,53,12.9,53,23.6c0,0,0,0.1,0,0.1v8.9H37.6c-10.7,0-19.5,8.7-19.5,19.4
		c0,0,0,0.1,0,0.1v122.6c0,10.7,8.7,19.5,19.4,19.5c0,0,0.1,0,0.1,0H126c10.7,0,19.5-8.7,19.5-19.4c0,0,0-0.1,0-0.1v-8.9h15.4
		c10.7,0,19.5-8.7,19.5-19.4c0,0,0-0.1,0-0.1V23.7C180.4,18.5,178.3,13.5,174.6,9.9z M139.5,174.7c0,7.5-6.1,13.6-13.6,13.6H37.6
		c-7.5,0-13.6-6.1-13.6-13.6V52.1c0-7.5,6.1-13.6,13.6-13.6H53v107.7c0,10.7,8.7,19.5,19.4,19.5c0,0,0.1,0,0.1,0h67V174.7z
		 M174.4,146.3c0,7.5-6.1,13.6-13.6,13.6H72.4c-3.6,0-7.1-1.4-9.6-4c-1.9-1.9-3.2-4.3-3.7-6.9c-0.2-0.9-0.3-1.8-0.3-2.7V23.7
		c0-7.5,6.1-13.6,13.6-13.6h88.3c7.5,0,13.6,6.1,13.6,13.6L174.4,146.3L174.4,146.3z"/>
</g>
</svg>
