<?xml version="1.0" encoding="utf-8"?>
<!-- Generator: Adobe Illustrator 25.4.1, SVG Export Plug-In . SVG Version: 6.00 Build 0)  -->
<!DOCTYPE svg PUBLIC "-//W3C//DTD SVG 1.1//EN" "http://www.w3.org/Graphics/SVG/1.1/DTD/svg11.dtd" [
	<!ENTITY ns_extend "http://ns.adobe.com/Extensibility/1.0/">
	<!ENTITY ns_ai "http://ns.adobe.com/AdobeIllustrator/10.0/">
	<!ENTITY ns_graphs "http://ns.adobe.com/Graphs/1.0/">
	<!ENTITY ns_vars "http://ns.adobe.com/Variables/1.0/">
	<!ENTITY ns_imrep "http://ns.adobe.com/ImageReplacement/1.0/">
	<!ENTITY ns_sfw "http://ns.adobe.com/SaveForWeb/1.0/">
	<!ENTITY ns_custom "http://ns.adobe.com/GenericCustomNamespace/1.0/">
	<!ENTITY ns_adobe_xpath "http://ns.adobe.com/XPath/1.0/">
]>
<svg version="1.1" id="Capa_1" xmlns:x="&ns_extend;" xmlns:i="&ns_ai;" xmlns:graph="&ns_graphs;"
	 xmlns="http://www.w3.org/2000/svg" xmlns:xlink="http://www.w3.org/1999/xlink" x="0px" y="0px" viewBox="0 0 197.6 197.6"
	 style="enable-background:new 0 0 197.6 197.6;" xml:space="preserve">
<metadata>
	<sfw  xmlns="&ns_sfw;">
		<slices></slices>
		<sliceSourceBounds  bottomLeftOrigin="true" height="189.2" width="189.2" x="4.9" y="5.2"></sliceSourceBounds>
	</sfw>
</metadata>
<path d="M64.5,54.3c0-1.9-1-3-3-2.9c-1.3,0.1-2.6,0.1-3.9,0c-4.5-0.3-5.6,1.1-4.1,5.6c0.4,0.1,0.8,0.2,1.1,0.2c2.3,0,4.7,0,7,0.1
	C63.5,57.3,64.5,56.2,64.5,54.3z"/>
<path d="M125.6,53.2c2.4,5.8,6.6,7.8,12.8,7.4c5.4-0.4,10.7-0.4,16.1,0.1c5.9,0.7,9.1,4.4,9.2,10.2c0.1,20.3,0.1,40.5-0.1,60.8
	c0,5.8-3.4,9.4-9.1,9.9c-5.9,0.6-12,0.6-17.9,0.6c-12.1,0.1-24.1,0-36.2,0V142c-16.1,0-32.3,0.1-48.3-0.1c-3.8-0.2-7.6-0.8-11.3-1.9
	c-3.9-1.1-5.6-4.2-5.6-8.1c-0.1-7.3-0.1-14.6-0.1-21.9c0-12.5,0-25.1,0.1-37.7c0-7.8,4.1-12,12-12.2c6-0.1,12.2-0.1,18.2,0
	c2.8,0.1,4.6-0.9,5.6-3.5c2.3-5.8,6.7-8.3,12.8-8.2c11.5,0.1,22.9,0.1,34.4,0.1C121.7,48.6,124.2,49.7,125.6,53.2z M125.9,97.8
	c-0.2-14.2-12.2-25.8-26.1-25.7c-15.2,0.2-26.7,11.7-26.5,26.4c0.2,14.5,12.2,26.2,26.7,25.9C114.5,124.3,126.1,112.3,125.9,97.8z
	 M129,77.9c0.1,3.2,2.6,5.7,5.7,5.9c2.9,0,5.8-3.1,5.8-5.9c-0.1-3.2-2.7-5.7-5.9-5.6c-3-0.2-5.5,2.1-5.6,5.1
	C129,77.5,129,77.7,129,77.9z"/>
<path d="M99.5,120.9h-0.2c-12.6-0.1-22.7-10.3-22.6-22.9C76.7,85.4,87,75.3,99.6,75.4l0,0c12.5,0,22.7,10.1,22.8,22.6
	c0,0.1,0,0.3,0,0.4l0,0c0,12.4-10.1,22.5-22.5,22.5C99.8,120.9,99.6,120.9,99.5,120.9z M99.6,77.7c-11.3,0-20.5,9.1-20.7,20.4
	c0,11.3,9.1,20.5,20.4,20.6h0.2c11.3,0,20.5-9.1,20.6-20.4c0-5.4-2.1-10.7-5.9-14.5C110.3,79.8,105.1,77.6,99.6,77.7z"/>
<path d="M99.5,192.4c-52.2,0-94.6-42.3-94.6-94.6S47.3,3.3,99.5,3.3s94.6,42.3,94.6,94.6C194,150.1,151.7,192.4,99.5,192.4z
	 M99.5,12.9c-46.9,0-84.9,38-84.9,84.9s38,84.9,84.9,84.9s84.9-38,84.9-84.9C184.4,51,146.4,13,99.5,12.9z"/>
</svg>
