<svg id="Capa_1" data-name="Capa 1" xmlns="http://www.w3.org/2000/svg" viewBox="0 0 261.96 118.49"><defs><style>.cls-1{fill:#4d4d4d;}</style></defs><title>hojita</title><path class="cls-1" d="M142.3,58.62c.2,5-2.2,8.7-5.3,12.5s-6,7.3-8.3,11.6c-3.5,6.7-5.6,16.1-2.6,23.3.1.2.2.3.4.3-3.2,7.6-7.3,14.8-13.8,20.1a1.38,1.38,0,0,0-.3.4c-4.5,2.7-9.4,4.4-14.5,3.1h-.1c-17.4-3.7-34.7-8.2-51.2-14.7a.45.45,0,0,0-.4.8c5.2,3.1,11,5,16.8,6.8,6.9,2.1,13.8,4,20.8,5.7a329.19,329.19,0,0,0,38.1,7.6,235.29,235.29,0,0,0,31.4,1.9,77.22,77.22,0,0,1,16.8,7.6c3.1,3,5.2,7.8,7.7,10.9a52,52,0,0,0,20.2,15.4c6.9,3,14.5,4.1,22,4.5a73.63,73.63,0,0,0,10.5-.2c2.8-.2,6.2-.5,8.8-1.8h.2a.37.37,0,0,0,.3-.1h.3c.4-.1.4-.7,0-.7H240a.55.55,0,0,0-.5-.3c-6.2,0-11.6-4.4-16.1-8.2-4.3-3.7-8.2-8-12.9-11.3a49.53,49.53,0,0,0-17.5-8.3,41.53,41.53,0,0,0-11.1-1.2c-3.1,0-6.5-.4-9.6,0h-.2c-.1,0-.3,0-.3.1a71,71,0,0,0-12.5-6.6,214.85,214.85,0,0,0,49.2-7.1h0a49.17,49.17,0,0,0,6.7,1,50.38,50.38,0,0,1,20.8,9.4c5.9,4.5,11.3,9.7,16.9,14.5a81.93,81.93,0,0,0,17.7,11.9c6.7,3.2,16.3,5.7,23.7,3.7.4-.1.5-.8,0-.8h-.2c-.1,0-.1,0-.2-.1a46.68,46.68,0,0,1-15.6-11.2c-5-5.2-9.4-11-14.3-16.2-10.4-11.2-26-14.2-40.7-11.9a54.82,54.82,0,0,0-10-1.5c4-1.2,8-2.5,11.9-3.9,7-2.5,13.9-5.1,20.9-7.4,6.6-1.5,12.9-.5,19.1,1.5a69.06,69.06,0,0,1,8.5,8.6c1.6,1.8,3.4,3.7,5.7,4.6a20,20,0,0,0,7.3,1.2c3.5.1,7.2.9,10.7.7.4,0,.4-.6.1-.7-.1,0-.1,0-.2-.1-1.5-2.5-3.8-4.6-5.7-6.7-2.4-2.8-4.9-5.5-8.2-7.3a14.64,14.64,0,0,0-6.5-1.4c-3.7-.2-7.4-.1-11.1-.1a43.09,43.09,0,0,0-11.8-2.7c3.1-.9,6.1-1.6,9.3-2.3a104.25,104.25,0,0,1,35.2-1.4,3.58,3.58,0,0,0,.9,3.8,4.84,4.84,0,0,0,5.5,1.4,5.34,5.34,0,0,0,2.7-4.7v-.2a2.91,2.91,0,0,0-.8-3.7,4.26,4.26,0,0,0-3.5-.4c-1.3-.1-2.7.1-3.2,1.4-.1.1-.1.2-.1.4l-.5.5c-14.4-2.7-29.5-.6-43.5,2.9-16.8,4.3-32.6,11.8-49.4,16.1-2.4.6-4.7,1.2-7.1,1.7a58,58,0,0,0,7.3-4c2.8-.3,5.6-1.6,8.3-2.5,4.4-1.6,8.8-3.5,13.1-5.4a131.91,131.91,0,0,0,24.3-13.7A84.32,84.32,0,0,0,271,86.52c3-4.2,5.8-8.6,9.6-12.2,3.6-3.4,8.2-5.5,12.3-8.2.8-.5,0-1.9-.8-1.4a.35.35,0,0,0-.2.1,16.35,16.35,0,0,0-2.2.2c-3.5,0-7.1.2-10.6.3-4.6,0-9.1,0-13.7.3-9.5.5-18.9,2.5-27,7.8s-12.7,14.3-16.8,22.7c-2.7,5.4-5.1,11-7.9,16.4-2.4,4.7-5.6,8.9-8,13.6a73.68,73.68,0,0,1-14.1,6.9,218.44,218.44,0,0,1-37,3.3c1.4-.4,2.8-.9,4.1-1.4,5.6-1.9,10.7-4.9,15.9-7.8,9.1-5.2,18.7-11.6,25.5-19.9a4.92,4.92,0,0,0,2.4-.2,4.42,4.42,0,0,0,3-3.7c.2-2.1-1.4-3.5-3.2-4.3-1.4-.7-3.3-1.1-4.5.2l-.1.1c-1.4.2-2.7.8-3,2.2-.4,1.6,1.1,3.2,2.1,4.2a7.1,7.1,0,0,0,1.4,1c-7.3,6.9-14.8,13.2-23.7,18.4a122.64,122.64,0,0,1-13.9,7.3c-4.7,2-9.5,2.5-14.3,3.9a241.35,241.35,0,0,1-39.7-4.5c-.3-.1-.5-.1-.8-.2,4.6-1.1,9.1-4.1,12.7-6.8,5-3.7,9.5-7.6,14.4-11.2a6.6,6.6,0,0,0,1.4-.1,28.13,28.13,0,0,0,7.1-.8,83.55,83.55,0,0,0,23.9-7.7c5.9-2.9,11.1-6.8,16.3-10.6,2.8-2,5.6-4.1,8.4-6.2a67.76,67.76,0,0,0,6.7-5.3,7.24,7.24,0,0,0,1.9-1.1c.3-.2.1-.8-.3-.7-.1,0-.3.1-.4.1s-.1-.1-.2-.1h-.1c-1.1.3-2.2.6-3.2.9a31,31,0,0,1-6.9.8c-3.1.1-6.2-.1-9.3-.1a59.2,59.2,0,0,0-20,3.4c-11.8,4.4-21.5,15.4-27.4,26.3v.1a53.25,53.25,0,0,0-4.7,3.6c-1.7,1.4-3.5,3-5.4,4.6a59.93,59.93,0,0,0,7.5-13.3c7.4-8.3,13.5-16.9,16.6-27.7a39.41,39.41,0,0,0,1.8-12.3c0-2.8-.6-7.1-3.1-8.9v-.2A.66.66,0,0,0,142.3,58.62Zm90.1,116-2,.3a81.46,81.46,0,0,1-12.1.1c-7.1-.5-14.6-1.7-21-4.9-7.3-3.6-14.5-8.7-19.2-15.5-1.7-2.4-3.3-4.9-5.1-7.2,7.4,4.6,14.6,9.9,22.3,14a133.13,133.13,0,0,0,21.5,9.6A63.23,63.23,0,0,0,232.4,174.62Zm-50.7-28.8a40.33,40.33,0,0,1,12,1.5,50,50,0,0,1,19.1,10.3c5.3,4.5,11,11.3,17.8,14.8a.6.6,0,0,1-.4-.1c-8.1-2.6-15.1-7.7-22.2-12.4-8.9-5.9-18.5-11.1-28.9-14C180,145.92,180.9,145.82,181.7,145.82Zm-7.1.1a102,102,0,0,1,19.2,6.8,151.09,151.09,0,0,1,16.4,9.8c4.7,3.1,9.5,6.4,14.7,8.8a65.6,65.6,0,0,1-8.4-2.3,141.86,141.86,0,0,1-21.4-9.7c-7.3-4-14-8.6-20.9-13.2-.2-.1-.4-.3-.6-.4C173.9,145.82,174.3,145.82,174.6,145.92Zm106.1,23.6a43.47,43.47,0,0,1-10.5-3.6c-7.4-3.4-13.7-8.8-19.8-14.1-2.3-2-4.7-4.2-7.2-6.4,1.6,1,3.2,2,4.8,3.1,4.1,2.8,8.1,5.8,12.1,8.8a91.33,91.33,0,0,0,12.5,8,58.77,58.77,0,0,0,16.4,5A77.67,77.67,0,0,1,280.7,169.52Zm-35.5-36.2c8.1,1.9,14.4,6.9,19.8,13,4,4.5,7.8,9.3,11.9,13.7-1.6-1.2-3.2-2.5-4.8-3.8-5-4.2-9.7-8.6-15-12.4a81.56,81.56,0,0,0-16-9.1,65.54,65.54,0,0,0-7.1-2.5A47.81,47.81,0,0,1,245.2,133.32Zm33.5,29.9c-7.2-4.6-13.8-10.3-20.6-15.4a109.58,109.58,0,0,0-21.1-12.5c-1.9-.8-3.8-1.5-5.8-2.2a56.61,56.61,0,0,1,12.3,3.9,85.72,85.72,0,0,1,16,10C266,152.22,272,158.32,278.7,163.22Zm-41.4-25.7c7.6,3.3,14.6,8,21.2,12.9,7.6,5.7,15.2,12.8,23.9,17.1a52.37,52.37,0,0,1-11.1-4.4,107.52,107.52,0,0,1-11.9-8c-7.6-5.5-15.3-12-23.9-16.1a51.87,51.87,0,0,0-8.7-5.3A93.65,93.65,0,0,1,237.3,137.52Zm33.6-15.6c.4.1.7.3,1.1.4,4.7,2,9.3,4.3,13.9,6.7,1.4.8,2.9,1.6,4.4,2.5-3.1-.6-6.4-.9-9.3-2.3a36.41,36.41,0,0,1-7.1-4.7A24.29,24.29,0,0,1,270.9,121.92Zm10,10.2c-3.3-.9-5.6-3.6-7.7-6.1a56.41,56.41,0,0,0,6.2,3.9,29.21,29.21,0,0,0,8.3,2.9A30.78,30.78,0,0,1,280.9,132.12Zm1.7-10.9c3.2,1.5,5.7,4.4,7.9,7.1.9,1,1.7,2.2,2.7,3.3-2.3-1.3-4.6-2.4-6.9-3.6-4.8-2.6-9.6-5-14.6-7.1-.8-.3-1.7-.7-2.6-1.1C273.7,119.82,278.6,119.32,282.6,121.22Zm20.9-5.6c-1.8.4-4-1.3-3.4-3.1a6.89,6.89,0,0,0,2.1,2.6A2.35,2.35,0,0,0,303.5,115.62Zm.4-5.3c1.5.4,1.8,2,1.5,3.3a4.87,4.87,0,0,0-.1-1.2v-.2c-.1-.3-.1-.6-.2-.9a.9.9,0,0,0-1.4-.5c-.2.2-.4.3-.6.5l-1.4-.3h0v-.1a10.09,10.09,0,0,1,1.5-.7C303.4,110.22,303.7,110.32,303.9,110.32Zm-26.7-40.5c-2.9,1.7-5.7,3.5-8.2,5.1a259.77,259.77,0,0,0-26.2,19.3c-7.5,6.2-14.1,13.3-21.4,19.7-2.2,1.9-4.4,3.7-6.7,5.5,1-1.3,1.9-2.6,2.8-4,1.8-2.1,3.6-4.1,5.4-6.1,5.8-6.5,11.6-13,18-19a90.5,90.5,0,0,1,20.6-14.6A69.32,69.32,0,0,1,277.2,69.82Zm5.4-2.7c-.4.2-.9.4-1.3.6-14,2.5-27.2,10.2-37.9,19.1-6.7,5.6-12.6,12.3-18.4,18.8-1.4,1.6-2.9,3.2-4.3,4.7a5.58,5.58,0,0,1,.5-.8c4.8-8.2,8.8-17,14.7-24.4C247.1,71.12,265.8,69.62,282.6,67.12Zm-68.4,47.3c2.4-4.6,4.6-9.2,6.8-13.9,4.3-9.1,8.9-18.9,17.2-25.1,7.7-5.8,17.7-7.5,27-8,2.2-.1,4.4-.2,6.6-.2-3.3.6-6.6,1.2-9.8,2-8.6,2.1-17.4,5.3-23.9,11.5-10.7,10.3-15.2,25.1-24,36.7-1.6,1.8-3.2,3.5-4.8,5.3A64.4,64.4,0,0,0,214.2,114.42Zm4,4.3c8.1-6.5,15-14.1,22.9-20.9A251.11,251.11,0,0,1,265.8,79c4.4-2.9,8.8-5.7,13.5-8.2.9-.5,1.9-1,2.9-1.5a63.63,63.63,0,0,0-12.5,10.1c-7.2,7.4-13.6,15.1-21.8,21.4-6.6,5.1-13.9,9-20.9,13.4-4.5,2.9-9,5.8-13.7,8.3C215,121.32,216.6,120,218.2,118.72Zm5.6-1.4c6.6-4.2,13.6-8,20-12.4,7.9-5.4,14.6-11.9,21-18.9,5.7-6.3,11.4-12.2,18.7-16.5-.7.5-1.4,1-2.2,1.5-3.7,2.7-6.5,6.4-9.2,10.1s-5.2,7.5-8.1,11.1a66.92,66.92,0,0,1-10.2,9.7c-7.3,6-15.6,10.5-24.1,14.5-4,1.9-8.1,3.6-12.2,5.3-.6.2-1.1.4-1.7.6C218.6,120.82,221.3,118.92,223.8,117.32Zm-21.6-15.4h0a3.91,3.91,0,0,0-3.5-.1,1.7,1.7,0,0,1,0-1A7.21,7.21,0,0,1,202.2,101.92Zm-6,0c0-.4.2-.6.6-.8a4.15,4.15,0,0,0,.3,1.6,3.79,3.79,0,0,0,.6,1.3v.2A4.35,4.35,0,0,1,196.2,101.92Zm3.3,1.5c.1-.3.7-.2,1.3,0A.85.85,0,0,1,199.5,103.42Zm-16.9-11.6c-5.3,3.8-10.5,7.8-16.3,10.9a78.38,78.38,0,0,1-11.5,5c2.9-1.4,5.6-2.9,8.4-4.4,5.2-3,10.2-6.3,15.1-9.7,4-2.7,8.8-5.2,12.6-8.3.2-.1.3-.1.5-.2C188.4,87.22,185.5,89.72,182.6,91.82Zm4.7-7.5h.9c-4.4,1.8-8.7,3.9-12.9,5.7-9.8,4.2-19.5,8.6-29,13.4-3,1.5-6,3.1-8.9,4.8,2.6-2.5,5.1-5.2,8-7.6a64.63,64.63,0,0,1,12.7-8C167.3,88,177.2,86.22,187.3,84.32Zm-25,1.8c6.2-1.9,12.6-2.2,18.9-2a101.37,101.37,0,0,0-23.7,7.8,64.36,64.36,0,0,0-12.2,7.7,54.93,54.93,0,0,0-10.7,10.3,13,13,0,0,0-1.5,1C140.5,99.82,149.2,90.12,162.3,86.12Zm-22.4,22.7c9.8-5.5,20.1-10.1,30.4-14.6,4.3-1.9,8.7-3.8,13.1-5.7-1.4,1-2.9,2.1-4.3,3-4.9,3.3-9.9,6.6-14.9,9.7a99.8,99.8,0,0,1-15.7,7.8,48.36,48.36,0,0,1-7.2,2c-2.1.3-4.2.6-6.3.8C136.6,110.82,138.2,109.72,139.9,108.82Zm-13-17.2a38.83,38.83,0,0,1,5.9-13.1c2.3-3.6,6.7-7.4,9.1-11.7a34.15,34.15,0,0,1-2.5,6.1c-1.9,3.6-4.2,7-6,10.7a57.66,57.66,0,0,0-4.7,14,9.33,9.33,0,0,1,2.4-.7c.1.2-1.4.7-2.5,1.1-.2,1.4-.4,2.7-.5,4-.4,1-.8,2-1.2,3.1C126.7,100.42,126,96.32,126.9,91.62Zm15.9-10.2a58.08,58.08,0,0,1-6.5,13.8,90.38,90.38,0,0,1-6.6,8.4c.5-1.3,1-2.6,1.5-4,3.2-5.8,6.8-11.4,9.9-17.2a51.68,51.68,0,0,0,3.7-8.5A58.88,58.88,0,0,1,142.8,81.42Zm-4.3,3c-1.5,2.7-3.1,5.3-4.7,8,.8-2.2,1.7-4.5,2.6-6.6.1-.3-.4-.5-.6-.3a56,56,0,0,0-4.9,9.4l.6-2.7a55.25,55.25,0,0,1,5.4-12.8c2.4-4.3,6.5-9.8,7.3-15.2C145.4,71.22,141.9,78.12,138.5,84.42Z" transform="translate(-45.97 -58.03)"/></svg>