<svg id="Capa_1" data-name="Capa 1" xmlns="http://www.w3.org/2000/svg" viewBox="0 0 208.46 235.66"><defs><style>.cls-1{fill:#fff;}</style></defs><path class="cls-1" d="M176.56,214.21c1.55-5.89,2.2-11.64,4.56-16.57,4.77-10,10.38-19.6,15.8-29.28,9.94-17.79,14.46-36.34,8.28-56.48A50.63,50.63,0,0,0,178,80.14a66.42,66.42,0,0,0-51.24-3.53C115.59,80.25,106.06,86.4,99,96.09c-9.8,13.39-12.12,28.39-9.94,44.4,1.66,12.16,7.42,22.7,13.27,33.2,4.3,7.74,8.9,15.36,12.53,23.41,2.38,5.3,3.27,11.27,4.86,17.05h13a58.54,58.54,0,0,0,0-6.51c-1.5-13.14-7.44-24.54-14.1-35.65-5.46-9.12-11.28-18.1-14.09-28.51-3.18-11.83-2.57-23.51,3.6-34.22,8.07-14,21.18-20.51,36.77-21.4s29.72,3.71,39.94,16.62A40.61,40.61,0,0,1,193.45,134c-1,12-6.73,22.35-12.53,32.67-5.16,9.15-10,18.51-14.33,28.09a39.78,39.78,0,0,0-3.09,19.42Zm-28.47,18.4c6.42,0,12.84,0,19.27,0,4.61,0,6.67-1.83,6.68-5.68,0-3.49-2.19-5.25-6.68-5.26q-19.28,0-38.54,0c-4.31,0-6.76,2-6.86,5.3-.1,3.51,2.4,5.62,6.86,5.64C135.24,232.64,141.66,232.61,148.09,232.61Zm0,17.33c6.41,0,12.83-.21,19.23.08a5.65,5.65,0,0,0,6-5.43c.08-3.26-2.18-5.21-6-5.22q-19.23,0-38.47,0c-3.84,0-6.15,2.21-6,5.61.09,2.78,2.71,4.94,6.08,5C135.3,250,141.72,249.94,148.13,249.94ZM43.81,121.84v14.33H73V121.84Zm179.57,14.24h28.89V121.89H223.38Zm-5.06-37.41,23.19-16.61c-2.43-3.51-4.64-6.7-6.84-9.9-1.16-1.69-2.28-1.93-4.07-.58-4.38,3.31-9,6.34-13.42,9.56-2.49,1.8-4.87,3.76-7.36,5.69ZM78,98.67c2.63-3.67,5.12-7,7.37-10.44a2.83,2.83,0,0,0-.39-2.72Q75,78.11,64.73,71a2.59,2.59,0,0,0-2.45.47c-2.56,3.34-5,6.83-7.57,10.52Zm-25.9,73.51c1.82,4.21,3.3,7.94,5.09,11.52a3.09,3.09,0,0,0,2.84,1q11.38-4.91,22.59-10.21a2.7,2.7,0,0,0,.71-2.5c-1.57-3.8-3.38-7.49-5.27-11.59Zm160.35,2.93c8.1,3.28,15.93,6.52,23.82,9.58.84.32,2.75-.06,3-.64,1.72-3.84,3.13-7.83,4.73-12l-26-10.61ZM192,39.44,179.3,63.28l13,7c3.91-7.3,7.63-14.2,11.3-21.13.73-1.38,1.63-2.83-.54-3.93C199.43,43.4,195.89,41.5,192,39.44Zm-87.62,0c-4,2.1-7.75,3.92-11.31,6a2.87,2.87,0,0,0-.66,2.72C96.11,55.53,100,62.81,104,70.34l13-7.1C112.7,55.21,108.61,47.52,104.33,39.45ZM155.59,33H141.36V58.3h14.23Zm-26.8,223.58c11.76,14.79,24.64,17.36,38.45,0Z" transform="translate(-43.81 -32.96)"/><path d="M176.56,214.21H163.5a39.78,39.78,0,0,1,3.09-19.42c4.31-9.58,9.17-18.94,14.33-28.09,5.8-10.32,11.51-20.64,12.53-32.67a40.61,40.61,0,0,0-8.68-29.55C174.55,91.57,160.55,87,144.83,87.86s-28.7,7.4-36.77,21.4c-6.17,10.71-6.78,22.39-3.6,34.22,2.81,10.41,8.63,19.39,14.09,28.51,6.66,11.11,12.6,22.51,14.1,35.65a58.54,58.54,0,0,1,0,6.51h-13c-1.59-5.78-2.48-11.75-4.86-17.05-3.63-8-8.23-15.67-12.53-23.41-5.85-10.5-11.61-21-13.27-33.2-2.18-16,.14-31,9.94-44.4,7.08-9.69,16.61-15.84,27.81-19.48A66.42,66.42,0,0,1,178,80.14a50.63,50.63,0,0,1,27.17,31.74c6.18,20.14,1.66,38.69-8.28,56.48-5.42,9.68-11,19.28-15.8,29.28C178.76,202.57,178.11,208.32,176.56,214.21Z" transform="translate(-43.81 -32.96)"/><path d="M148.09,232.61c-6.43,0-12.85,0-19.27,0-4.46,0-7-2.13-6.86-5.64.1-3.35,2.55-5.29,6.86-5.3q19.27,0,38.54,0c4.49,0,6.68,1.77,6.68,5.26,0,3.85-2.07,5.65-6.68,5.68C160.93,232.64,154.51,232.61,148.09,232.61Z" transform="translate(-43.81 -32.96)"/><path d="M148.13,249.94c-6.41,0-12.83,0-19.24,0-3.37,0-6-2.18-6.08-5-.12-3.4,2.19-5.6,6-5.61q19.23,0,38.47,0c3.84,0,6.1,2,6,5.22a5.65,5.65,0,0,1-6,5.43C161,249.73,154.54,249.94,148.13,249.94Z" transform="translate(-43.81 -32.96)"/><path d="M43.81,121.84H73v14.33H43.81Z" transform="translate(-43.81 -32.96)"/><path d="M223.38,136.08V121.89h28.89v14.19Z" transform="translate(-43.81 -32.96)"/><path d="M218.32,98.67l-8.5-11.84c2.49-1.93,4.87-3.89,7.36-5.69,4.45-3.22,9-6.25,13.42-9.56,1.79-1.35,2.91-1.11,4.07.58,2.2,3.2,4.41,6.39,6.84,9.9Z" transform="translate(-43.81 -32.96)"/><path d="M78,98.67,54.71,82c2.62-3.69,5-7.18,7.57-10.52A2.59,2.59,0,0,1,64.73,71q10.2,7.09,20.2,14.47a2.83,2.83,0,0,1,.39,2.72C83.07,91.69,80.58,95,78,98.67Z" transform="translate(-43.81 -32.96)"/><path d="M52.05,172.18l26-11.79c1.89,4.1,3.7,7.79,5.27,11.59a2.7,2.7,0,0,1-.71,2.5Q71.36,179.77,60,184.69a3.09,3.09,0,0,1-2.84-1C55.35,180.12,53.87,176.39,52.05,172.18Z" transform="translate(-43.81 -32.96)"/><path d="M212.4,175.11,218,161.43,244,172c-1.6,4.18-3,8.17-4.73,12-.25.58-2.16,1-3,.64C228.33,181.63,220.5,178.39,212.4,175.11Z" transform="translate(-43.81 -32.96)"/><path d="M192,39.44c3.94,2.06,7.48,4,11.07,5.77,2.17,1.1,1.27,2.55.54,3.93-3.67,6.93-7.39,13.83-11.3,21.13l-13-7Z" transform="translate(-43.81 -32.96)"/><path d="M104.33,39.45c4.28,8.07,8.37,15.76,12.64,23.79l-13,7.1c-4-7.53-7.89-14.81-11.64-22.18A2.87,2.87,0,0,1,93,45.44C96.58,43.37,100.3,41.55,104.33,39.45Z" transform="translate(-43.81 -32.96)"/><path d="M155.59,33V58.3H141.36V33Z" transform="translate(-43.81 -32.96)"/><path d="M128.79,256.54h38.45C153.43,273.9,140.55,271.33,128.79,256.54Z" transform="translate(-43.81 -32.96)"/></svg>