<svg id="Capa_1" data-name="Capa 1" xmlns="http://www.w3.org/2000/svg" viewBox="0 0 278.47 278.47"><defs><style>.cls-1{fill:#323232;}</style></defs><path class="cls-1" d="M212,291.25H92A79.34,79.34,0,0,1,12.77,212V92A79.35,79.35,0,0,1,92,12.78H212A79.36,79.36,0,0,1,291.24,92V212A79.35,79.35,0,0,1,212,291.25ZM92,36.65A55.46,55.46,0,0,0,36.64,92V212A55.46,55.46,0,0,0,92,267.38H212A55.46,55.46,0,0,0,267.37,212V92A55.46,55.46,0,0,0,212,36.65Z" transform="translate(-12.77 -12.78)"/><path class="cls-1" d="M152,223.31a71.3,71.3,0,1,1,71.3-71.3A71.37,71.37,0,0,1,152,223.31Zm0-118.73A47.44,47.44,0,1,0,199.44,152,47.49,47.49,0,0,0,152,104.58Z" transform="translate(-12.77 -12.78)"/><path class="cls-1" d="M243.5,76.63A17.14,17.14,0,1,1,226.36,59.5,17.14,17.14,0,0,1,243.5,76.63Z" transform="translate(-12.77 -12.78)"/></svg>