<?xml version="1.0" encoding="utf-8"?>
<!-- Generator: Adobe Illustrator 25.4.1, SVG Export Plug-In . SVG Version: 6.00 Build 0)  -->
<!DOCTYPE svg PUBLIC "-//W3C//DTD SVG 1.1//EN" "http://www.w3.org/Graphics/SVG/1.1/DTD/svg11.dtd" [
	<!ENTITY ns_extend "http://ns.adobe.com/Extensibility/1.0/">
	<!ENTITY ns_ai "http://ns.adobe.com/AdobeIllustrator/10.0/">
	<!ENTITY ns_graphs "http://ns.adobe.com/Graphs/1.0/">
	<!ENTITY ns_vars "http://ns.adobe.com/Variables/1.0/">
	<!ENTITY ns_imrep "http://ns.adobe.com/ImageReplacement/1.0/">
	<!ENTITY ns_sfw "http://ns.adobe.com/SaveForWeb/1.0/">
	<!ENTITY ns_custom "http://ns.adobe.com/GenericCustomNamespace/1.0/">
	<!ENTITY ns_adobe_xpath "http://ns.adobe.com/XPath/1.0/">
]>
<svg version="1.1" id="Capa_1" xmlns:x="&ns_extend;" xmlns:i="&ns_ai;" xmlns:graph="&ns_graphs;"
	 xmlns="http://www.w3.org/2000/svg" xmlns:xlink="http://www.w3.org/1999/xlink" x="0px" y="0px" viewBox="0 0 198.4 198.4"
	 style="enable-background:new 0 0 198.4 198.4;" xml:space="preserve">
<metadata>
	<sfw  xmlns="&ns_sfw;">
		<slices></slices>
		<sliceSourceBounds  bottomLeftOrigin="true" height="192.9" width="165.2" x="-5.3" y="-9.4"></sliceSourceBounds>
	</sfw>
</metadata>
<path d="M176.4,60c0.1,0.3,0.3,0.5,0.5,0.7c2.3,2,1.9,5.6,0.8,7.9c-2.1,4.2-4.3,8.3-6.6,12.4c-3.1,5.6-6.2,11.1-9.3,16.6
	c-4.5,8-9.3,15.8-14.4,23.3c-4,5.9-7.9,12-11.9,18c-1.1,1.6-2.2,3.2-3.3,4.8c-3.3,4.5-6.2,9.4-9.1,14.3c-2.6,4.4-5.2,8.7-8.1,12.8
	c-5.1,7.3-10.2,14.6-14.9,22.2c-0.7,1-1.5,2-2.4,2.8c-1,1-2.5,1-3.5,0.1c-0.9-0.9-1.3-2.3-0.8-3.5c0.2-0.8,0.5-1.5,0.7-2.2
	c-2.6-0.9-2.7-0.9-4.9-3.3c-6-6.8-12.4-13.2-19.1-19.3c-5.7-5.2-11.7-10-17.9-14.5c-9.7-6.9-19.4-13.8-29.1-20.5
	c-1.1-0.7-2.2-1.3-3.3-1.9c-0.9-0.4-1.4-1.4-1.3-2.3c0.1-1,0.9-1.8,1.9-1.9c0.9-0.1,1.8,0,2.6,0.3c1.5,0.6,3,1.3,4.4,2.1
	c7.5,4.3,14.8,9,22,13.9c13,8.9,25.1,19.1,36.1,30.5c3.2,3.3,6.3,6.7,9.3,10.2c0.8,1,1.4,2.1,2,3.3c0.6-0.8,1.2-1.5,1.7-2.3
	c3.6-5.1,7.3-10.3,10.9-15.4s7-10.2,10.1-15.6c1.8-3.1,3.8-6.1,5.8-9.1c3.7-5.2,7.1-10.6,10.5-16.1c3-4.8,6-9.5,9.1-14.3
	c5.7-8.8,11.2-17.8,16.3-26.9c3.6-6.5,7.6-12.7,11.4-19.1c0.2-0.4,0.4-0.8,0.7-1.3c-0.2-0.3-0.5-0.6-0.8-0.9
	c-6.8-6.5-14-12.4-21.3-18.2c-16-12.6-32.7-24.3-50.1-34.9c-0.8-0.5-1.8-0.9-2.7-1.5c-0.5,0.5-1,0.9-1.3,1.4
	c-4,5.4-7.7,10.9-11.1,16.7C80,38.9,74.1,48.4,67.8,57.7c-8,11.7-15.8,23.5-23,35.7c-4.6,7.8-9.4,15.5-14.1,23.2
	c-0.9,1.5-1.9,2.9-2.9,4.4c-0.5,0.7-1,1.4-1.6,2c-1.2,1.2-2.6,1.4-3.7,0.6c-1.1-1-1.4-2.7-0.7-4c0.4-1.1,0.9-2.2,1.6-3.2
	c1.8-3,3.7-6,5.5-9c4.6-7.5,9-15,13.6-22.4c4-6.5,8.2-13,12.4-19.5c5.6-8.5,11.4-16.9,16.9-25.4c3.7-5.6,7.1-11.4,10.6-17.1
	c2.6-4.4,5.6-8.6,9-12.4c1.5-1.6,3.2-3,4.8-4.5c0.4-0.4,1-0.7,1.2-1.1c0.4-1,1.4-1.6,2.5-1.5c1.6,0,3.2,0.2,4.8,0.5
	c2.8,0.6,5.6,1.3,8.3,2.2c13.8,4.8,27.4,10.3,40.6,16.6c7.7,3.7,14.9,8.2,21.6,13.5c2.3,1.8,4.5,3.9,6.6,6c0.8,0.7,1.4,1.6,1.9,2.5
	c0.5,0.8,0.3,1.9-0.6,2.4c0,0-0.1,0-0.1,0.1c-0.7,0.5-1.3,1.1-1.7,1.8C178.8,52.5,177.2,56.1,176.4,60z M123.6,16.7
	c0.4,0.5,0.8,1.1,1.6,0.9c0.5,0.4,0.8,1,1.6,0.6c0.6,0.4,1.2,0.8,1.8,1.2c3.4,1.7,6.8,3.4,10.2,5.1c6.6,3.5,13.2,7,19.7,10.5
	c2.2,1.1,4.4,2.2,6.5,3.4c0.9,0.6,1.8,1.3,2.5,2.1c0.5,0.6,0.6,1.5,0.3,2.2c-0.2,0.8-1,1.2-1.8,1.1c-1-0.2-1.9-0.5-2.8-0.9
	c-5.9-3.1-11.8-6.3-17.8-9.5c-0.8-0.5-1.7-0.9-2.6-0.9c1.2,0.9,2,1.6,2.9,2.3c2.8,2.2,5.5,4.3,8.3,6.4c1.6,1.2,3.3,2.3,5,3.4
	c3.1,2,6.2,3.8,9.3,5.8c0.7,0.4,1.3,1,1.7,1.8c0.2,0.8,0.3,1.7,0.3,2.6c0.4,0.4,0.8,0.8,1.2,1.1c0.4,0.3,0.7,0.9,1.2,0.7
	c0.7-1.9,1.5-3.7,2.4-5.5c1.1-1.7,2.3-3.4,3.6-5c-0.6-0.6-1.1-1.2-1.6-1.7c-5.1-4.7-10.7-8.7-16.8-12c-10.5-5.9-21.7-10-32.8-14.1
	c-0.2-0.1-0.5,0.1-0.7,0.1c-0.4-0.5-0.8-1.1-1.6-0.6C124.9,17,124.3,16.7,123.6,16.7c-0.4-0.1-0.7-0.6-1.2-0.2
	c-2-1.5-4.4-1.9-6.6-2.8c-0.2-0.1-0.5,0-0.7,0.1s-0.2-0.2-0.3-0.3c0.1,0,0.2,0,0.2,0.1c0,0.1,0,0.2,0,0.3c1.1,0.7,2.2,1.5,3.4,2.2
	c0.4,0.2,0.9,0.4,1.4,0.4c0.9,0.1,1.7,0.1,2.6,0.1C122.8,16.7,123.1,17.3,123.6,16.7z"/>
<path d="M131.9,102.1c-1.4,2-3.1,3.8-4.9,5.3c-2.5,2-4.8,4.2-7.7,5.6c-2.1,1.2-4.5,2-6.9,2.3c-0.9,0.1-1.8,0.2-2.7,0.4
	c-5.2,1.2-10.6,0.7-15.6-1.3c-1.8-0.7-3.5-1.6-5.2-2.4c-1.3-0.7-2.5-1.7-3.4-2.9c-1.2-1.6-2.4-3.1-3.6-4.7
	c-2.5-3.5-4.3-7.4-5.4-11.5c-0.9-3.4-1.1-6.9-0.7-10.3c0.4-5.2,1.6-10.4,3.6-15.3c2.2-5.3,5.7-9.9,10.1-13.5
	c3.8-3.3,8.3-5.6,13.2-6.8c3.7-1,7.5-1.1,11.2-0.3c4.6,0.8,9.1,2.5,13,5c1.4,0.9,2.7,2.1,3.6,3.4c1.3,1.8,2.6,3.5,3.8,5.4
	c1.2,1.8,2,3.8,2.4,5.9c1.3,7.1,2.1,14.3,1,21.6c-0.6,4.3-2.1,8.5-4.5,12.1C132.8,100.7,132.4,101.3,131.9,102.1z M116.5,92.2
	c3.7-3.7,8.3-11.8,9-16.2c-0.8-1.1-1.6-2.2-2.6-3.3s-1.7-2.6-3.1-3.3c-1.6,1.2-3.1,2.5-4.4,4c-1.3,1.4-2.6,2.8-3.9,4.2
	c-1.3,1.4-2.9,2.7-3.9,4.7C110.6,85.8,113.5,89,116.5,92.2L116.5,92.2z M104.8,85.7C102,88,97.1,94,96.1,96.3
	c0.8,1.1,1.6,2.2,2.5,3.3c3,3.5,3.2,3.6,7.4,1.7c2.9-1.3,5.4-3.2,7.5-5.7C110.8,92.1,107.9,88.7,104.8,85.7z M127.1,101.6
	c0.4-0.2,0.7-0.4,1-0.7c2.7-3.3,4.3-7.3,4.9-11.5c0.1-0.8,0-1.6-0.3-2.3c-0.9-2.6-2.3-5-4.2-7.1c-0.1-0.1-0.3-0.1-0.5-0.1
	c-1.3,2.6-2.5,5.3-3.9,7.8s-3,4.9-4.6,7.5C121.9,97.6,124.1,100.1,127.1,101.6z M96.6,73.1c-0.5,0.5-1,1.1-1.5,1.7
	c-1.2,1.7-2.3,3.4-3.3,5.1c-3,5.7-3,4.2,0.1,9.7c0.4,0.6,0.6,1.5,1.6,1.5c2.3-3,4.7-6,7.1-9c0.3-0.4,0.5-0.8,0.8-1.1
	C100,78.3,98.5,75.6,96.6,73.1z M100,70c1.5,3.5,2.9,5.8,4.5,7.3c1.9-1.9,3.8-3.9,5.7-5.9s4.2-3.6,6.1-5.9c-0.9-1.3-2.1-2.5-3.5-3.3
	C108.1,64,103.7,66.6,100,70z M106.1,106.5c1.1,1.4,2.4,2.6,3.9,3.5c0.4,0.2,0.9,0.3,1.3,0.2c4.5-0.2,8.8-2.1,12-5.4
	c0.1-0.1,0.1-0.4,0.1-0.5c-2.3-2-4.6-3.9-6.9-6c-1.6,1.5-3.1,3.1-4.8,4.4S108.1,105.2,106.1,106.5L106.1,106.5z M93.5,60.3
	c1.5,2.2,2.8,4.3,4.3,6.2l5.5-4.1c1.8-1.3,3.9-1.9,5.7-3.4c-0.2-0.3-0.5-0.7-0.8-1c-1.3-1.3-2.8-2.3-4.1-3.4
	C100,54.8,96.7,56.9,93.5,60.3z M94.8,69.1c-1-2.1-2.2-4.1-3.4-6.1c-1,0.7-2,1.5-2.8,2.5c-1.4,1.4-2.6,3.1-3.4,5
	c-0.4,0.7-0.5,1.5-0.5,2.3c0.5,2.5,1.5,4.9,2.9,7c1.2-2,2.1-3.8,3.3-5.4C92.1,72.7,93.4,71,94.8,69.1L94.8,69.1z M82.9,77.9
	c-2.3,5-2.3,12.7-0.1,15.4c0.4-1.4,0.7-2.7,1.1-4c0.4-1.3,0.9-2.6,1.3-3.9c0.2-0.6,0.2-1.2,0-1.7C84.6,81.6,83.8,79.8,82.9,77.9
	L82.9,77.9z M122.2,56.6c-5.2-3.2-10.8-4.3-14.3-2.8c0.7,0.8,1.5,1.6,2.5,2.1c0.9,0.7,1.8,1.3,2.5,1.8c1.6-0.3,3.1-0.7,4.6-0.9
	C119,56.6,120.5,56.8,122.2,56.6L122.2,56.6z M86.2,102.2c1.8-2.2,3.4-4.6,4.6-7.2c-0.8-1.3-1.5-2.6-2.2-3.8
	c-0.3-0.3-0.6-0.6-0.9-0.8c-1.2,3.2-1.8,6.6-2,10.1C85.8,101,85.9,101.6,86.2,102.2z M122.7,66.9c1.6,1.6,2.6,3.3,4.1,4.5
	c0.2-0.2,0.4-0.3,0.5-0.4c0.5-2.4,1-4.8,1.4-7.3c0-0.3-0.2-0.6-0.4-1.1L122.7,66.9z M89.6,104.5c2.4,0.2,4.9-0.3,7.1-1.3
	c-0.7-1.6-2-2.6-3.1-4.2C92.1,100.8,90.8,102.6,89.6,104.5z M133,79.6c-0.3-3.7-0.9-7.4-1.9-11c0-0.1-0.3-0.1-0.5-0.2
	c-0.4,1.8-0.8,3.7-1.1,5.5c-0.1,0.5,0,1,0.2,1.4C130.6,76.9,131.8,78.3,133,79.6z M119.2,63.4l5.2-3.3c-2.6-0.3-5.2,0.1-7.5,1.1
	L119.2,63.4z M97,108.1c1.9,1.1,4.2,1.5,6.4,1.1C101.6,106.8,99.4,107.6,97,108.1z"/>
<path d="M97.3,139.6c0.4,0.5,0.6,1.1,0.8,1.6c0.1,0.8,0.1,1.6,0,2.4c-0.8,3.8-3.3,7.9-8.1,9.1c-1.6,0.5-3.3,0.2-4.6-0.8
	c-2.2-1.7-2.7-4.7-1.3-7.1c0.8-1.4,1.8-2.7,2.9-3.9c1.9-1.9,4.2-3.4,6.8-4.3c0.8-0.5,1.8-0.5,2.6,0c0.3,0.2,0.5,0.5,0.6,0.9
	c-0.1,0.3-0.3,0.6-0.7,0.8c-3,0.6-5.4,2.6-7.8,4.6c-1,0.9-1.9,2-2.4,3.2c-1,2.5,0.3,4.5,2.7,4.2c2.5-0.3,4.6-1.8,5.6-4.1
	C95.5,144.2,96.2,142.1,97.3,139.6z"/>
<path d="M80.4,135.4c-0.9,1.8-1.8,3.6-2.7,5.3c-0.3,0.6-0.6,1.2-1.1,1.6c-0.3,0.3-0.8,0.4-1.2,0.2c-0.3-0.3-0.5-0.7-0.5-1.2
	c0.2-1.1,0.5-2.1,1-3.1c1.4-2.6,2.8-5.1,4.3-7.6c0.6-0.8,1.1-1.6,1.6-2.4c0.4-1.2,1.5-2,2.8-1.9c2.1-0.3,4.3,0,6.3,0.9
	c0.7,0.3,1.3,0.8,1.6,1.5c0.7,1.2,0.6,2.8-0.4,3.8c-0.8,0.9-1.7,1.8-2.6,2.6c-2.2,1.7-4.5,2.5-7,1.1C81.6,136,81.1,135.7,80.4,135.4
	z M81.1,133.9c3.4,1.8,6.8,1.1,8.9-1.4c0.8-1.1,0.7-2.1-0.5-2.6c-2-0.8-4.1-1.1-6.2-0.9C82.6,130.5,81.9,132.1,81.1,133.9
	L81.1,133.9z"/>
<path d="M102.3,144c0.7,2.1-1.2,3.3-1.1,5.2c1.2,0.2,2.4-0.1,3.4-0.8c1.1-0.8,1.1-1.4,0.4-2.7c-0.2-0.3-0.3-0.6-0.5-0.9
	c0.5-0.6,1.3-0.7,1.9-0.3c0,0,0.1,0.1,0.1,0.1c0.9,0.6,1.4,1.6,1.3,2.7c-0.1,1.4-0.7,2.7-1.7,3.6c-1.2,1.1-2.8,1.7-4.5,1.7l-2.8,0.1
	c0.2,2.5,1.8,3.6,3.2,4.9c-1.6,1.8-2.1,1.7-5-0.2c-0.4,0.3-0.9,0.5-1.4,0.7c-0.7,0.1-1.3-0.3-1.5-1c0-0.2,0-0.4,0-0.5
	c0-0.3,0.1-0.6,0.3-0.8c0.7-1.1,1.1-2.3,1.1-3.6c0-0.8,0.4-1.5,1.1-1.9c1.4-0.7,2.1-2.1,2.9-3.4c0.5-0.7,0.9-1.5,1.4-2.2
	C101.4,144.3,101.9,144.2,102.3,144z"/>
<path d="M47.7,103.3c0.9,0.4,1.9,0.7,2.9,1c1.1,0.2,2.1,0.6,3,1.2c1.8,1.3,2.2,3.7,0.9,5.4c-0.2,0.3-0.5,0.6-0.8,0.8
	c-0.9,0.9-2.1,1.5-3.4,1.8c-1.6,0.2-3.2,0.3-4.8,0.4c-0.6,0-1.1-0.1-1.7-0.2l-1.7,2.7c-0.6,0.9-1.2,1.8-1.7,2.7
	c-0.2,0.4-0.4,0.7-0.6,1c-0.3,0.3-0.7,0.5-1.1,0.5c-0.4,0-0.6-0.8-0.3-1.5c0.4-1,0.8-2,1.3-3c2.1-3.6,4.2-7.2,6.4-10.7
	C46.6,104.7,47.1,104,47.7,103.3z M45.4,111.4c1.9,0.3,3.7,0,5.5-0.6c0.7-0.3,1.3-0.7,1.8-1.2c0.7-0.6,0.7-1.6,0.2-2.3
	c-0.1-0.1-0.2-0.2-0.3-0.3c-1.3-1.1-3-1.5-4.6-1.1c-0.8,1.5-1.6,2.9-2.3,4.4C45.5,110.7,45.4,111.1,45.4,111.4z"/>
<path d="M54.5,120.8l-2.9-2.4c-1.2,0.6-2.2,1.3-3.2,2.2c-1,0.7-1.7,2-3.4,2.4c0.2-0.5,0.4-1,0.7-1.5c0.7-1,1.6-1.9,2.5-2.7
	c2.9-2.3,5.9-4.5,9-6.7c0.5-0.4,1.1-0.7,1.7-0.9c1.4-0.5,2.3,0.5,2.1,2.1c-0.1,0.6-0.3,1.2-0.5,1.7c-0.7,2.2-2.3,4.1-2.6,6.5
	c-1.4,1.4-1.8,3.4-2.8,5.1c-0.2,0.3-0.4,0.6-0.7,0.9c-0.3,0.2-0.6,0.3-1,0.2c-0.3-0.2-0.5-0.5-0.6-0.9c0-0.9,0.2-1.8,0.4-2.6
	C53.6,123.1,54.1,122.1,54.5,120.8z M57.8,114.6c-1.9,0.4-3.7,1.4-5,2.7c0.6,0.9,1.6,1.4,2.6,1.6L57.8,114.6z"/>
<path d="M116.7,151.4c-1.4,0.5-2.7-0.5-4.2-0.6c-0.3,0.5-0.5,1-0.8,1.5c-1.8,3.5-3.6,6.9-5.5,10.4c-0.3,0.5-0.6,1-1,1.4
	c-0.3,0.2-0.6,0.4-1,0.3c-0.4-0.2-0.8-0.6-0.8-1c0-0.8,0.1-1.6,0.4-2.3c0.9-2,2-4,3.1-6c1.1-1.7,2.3-3.3,3.5-5.1
	c-0.5-0.6-1-1.2-1.4-1.8c-0.2-0.4-0.2-0.9-0.1-1.3c0-0.2,0.7-0.6,0.8-0.5c2.2,1.8,4.9,2.7,7,4.8
	C116.7,151.2,116.7,151.3,116.7,151.4z"/>
<path d="M79.2,125.5c-1.4,0-2.8-0.1-4.2,0.9c0.2,1,0.4,2,0.6,3.1c0.4,2.2-0.2,4.4-1.8,6c-2.1,1.9-5.3,1.8-7.2-0.2
	c-0.3-0.3-0.5-0.6-0.7-1c-0.1-0.5-0.2-1.1-0.1-1.6c1.1,0.3,2,0.6,3,0.8c1.3,0.3,2.6-0.1,3.4-1.2c0.8-0.9,1.2-2.1,1.1-3.3
	c-0.1-0.7-0.2-1.4-0.3-2.1c-0.2-1.2,0.5-2.4,1.6-2.8c1.2-0.6,2.6-0.7,3.9-0.3C79.1,124,79.4,124.4,79.2,125.5z"/>
<path d="M69.5,117.9c-1.4,1.5-3.2,1.1-4.4,2.6c0.2,0.6,0.5,1.3,0.7,2c0.5,1,0.9,2,1.2,3c0.6,2.2-0.2,4.6-1.9,6.1
	c-1.8,1.4-4.2,1.5-6.1,0.2c-0.9-0.5-1.2-1.5-0.8-2.4c1,0.3,2,0.5,3.1,0.7c2.2,0.1,4.8-2.7,3.5-5.9c-0.4-0.9-0.8-1.8-1.1-2.7
	c-0.5-1.1-0.1-2.4,1-3C66.2,117.6,68,117.4,69.5,117.9z"/>
</svg>
