<?xml version="1.0" encoding="utf-8"?>
<!-- Generator: Adobe Illustrator 25.4.1, SVG Export Plug-In . SVG Version: 6.00 Build 0)  -->
<!DOCTYPE svg PUBLIC "-//W3C//DTD SVG 1.1//EN" "http://www.w3.org/Graphics/SVG/1.1/DTD/svg11.dtd" [
	<!ENTITY ns_extend "http://ns.adobe.com/Extensibility/1.0/">
	<!ENTITY ns_ai "http://ns.adobe.com/AdobeIllustrator/10.0/">
	<!ENTITY ns_graphs "http://ns.adobe.com/Graphs/1.0/">
	<!ENTITY ns_vars "http://ns.adobe.com/Variables/1.0/">
	<!ENTITY ns_imrep "http://ns.adobe.com/ImageReplacement/1.0/">
	<!ENTITY ns_sfw "http://ns.adobe.com/SaveForWeb/1.0/">
	<!ENTITY ns_custom "http://ns.adobe.com/GenericCustomNamespace/1.0/">
	<!ENTITY ns_adobe_xpath "http://ns.adobe.com/XPath/1.0/">
]>
<svg version="1.1" id="Capa_1" xmlns:x="&ns_extend;" xmlns:i="&ns_ai;" xmlns:graph="&ns_graphs;"
	 xmlns="http://www.w3.org/2000/svg" xmlns:xlink="http://www.w3.org/1999/xlink" x="0px" y="0px" viewBox="0 0 198.4 198.4"
	 style="enable-background:new 0 0 198.4 198.4;" xml:space="preserve">
<metadata>
	<sfw  xmlns="&ns_sfw;">
		<slices></slices>
		<sliceSourceBounds  bottomLeftOrigin="true" height="179.4" width="179.7" x="-24.7" y="-25.5"></sliceSourceBounds>
	</sfw>
</metadata>
<g id="Recargar">
	<g>
		<path d="M124.4,87.1L101.3,100L85.8,73.3c-1.3-2.2-4.2-3-6.5-1.8c-2.2,1.3-3.1,4.2-1.8,6.4l19.9,34.5c1.3,2.2,4.2,3.1,6.5,1.8
			c0.6-0.3,1-0.7,1.3-1.2c0.1,0,0.3-0.1,0.4-0.1l25.4-14.3c3.3-1.8,4.3-5.8,2.5-8.9C131.7,86.3,127.7,85.3,124.4,87.1z"/>
		<path d="M169.6,130.4c-13.1,28.1-39.1,43.7-65.2,43.7c-42.3,0-78.1-28.1-78.3-74.7c0-40.5,32.7-74.7,75-74.7
			c26,0,44.4,10.2,55.4,18.7l-13.1,12.5l39.1,6.2l-3.3-40.5l-13.4,12c-16.5-14.6-38.5-23.3-62.7-23.3C51.5,10.3,9.5,50.4,9.5,100
			c0,49.5,42,89.7,93.7,89.7c40.5,0,70.7-28.1,86-59.3H169.6z"/>
	</g>
</g>
</svg>
